<?xml version="1.0" encoding="UTF-8" standalone="no"?>
<svg width="29px" height="29px" viewBox="0 0 29 29" version="1.1" xmlns="http://www.w3.org/2000/svg" xmlns:xlink="http://www.w3.org/1999/xlink">
    <!-- Generator: Sketch 3.8.3 (29802) - http://www.bohemiancoding.com/sketch -->
    <title>Group 8</title>
    <desc>Created with Sketch.</desc>
    <defs></defs>
    <g id="Page-1" stroke="none" stroke-width="1" fill="none" fill-rule="evenodd">
        <g id="Chain-list" transform="translate(-65.000000, -498.000000)">
            <g id="Group-8" transform="translate(65.000000, 498.000000)">
                <circle id="Oval-5" fill="#FF5003" cx="14.5" cy="14.5" r="14.5"></circle>
                <path d="M24.8144333,9.6189 L20.5666667,5.37113333 L16.3189,9.6189 L17.2144333,10.5144333 L19.9333333,7.79553333 L19.9333333,16.4 C19.9333333,19.8922 17.0922,22.7333333 13.6,22.7333333 C10.1078,22.7333333 7.26666667,19.8922 7.26666667,16.4 C7.26666667,14.7083667 7.92533333,13.1180667 9.1217,11.9217 L8.22616667,11.0261667 C6.7904,12.4619333 6,14.3701667 6,16.4 C6,20.5907667 9.40923333,24 13.6,24 C17.7907667,24 21.2,20.5907667 21.2,16.4 L21.2,7.79553333 L23.9189,10.5144333 L24.8144333,9.6189 L24.8144333,9.6189 Z" id="Shape" fill="#FFFFFF"></path>
                <ellipse id="Oval" fill="#FFFFFF" cx="14.6" cy="15.4" rx="1.9" ry="1.9"></ellipse>
            </g>
        </g>
    </g>
</svg>